<svg width="29" height="33" viewBox="0 0 29 33" fill="none" xmlns="http://www.w3.org/2000/svg">
<g filter="url(#filter0_d_381_8778)">
<path d="M13.5314 4.46456C13.6577 4.93129 13.7126 5.39802 13.7072 5.85926C13.0977 5.68355 12.4772 5.56275 11.8402 5.51333C11.8238 5.32664 11.7908 5.13446 11.7414 4.94227C11.2637 3.15222 9.41872 2.08698 7.62867 2.57018C5.83863 3.05339 4.77338 4.89285 5.25659 6.6829C5.306 6.87509 5.3719 7.05629 5.45426 7.22651C4.92713 7.5944 4.44942 8.00622 4.01014 8.46197C3.77403 8.06662 3.59283 7.62735 3.46654 7.16611C2.71977 4.38769 4.37254 1.5269 7.15096 0.780135C9.92938 0.0333667 12.7902 1.68614 13.5314 4.46456Z" fill="#F0BC1B" stroke="#101922" stroke-width="0.92" stroke-linecap="round" stroke-linejoin="round"/>
<path d="M17.4851 26.3734C17.9628 28.1635 16.903 30.0084 15.113 30.4861C13.3229 30.9638 11.478 29.9041 11.0002 28.114L17.4851 26.3734Z" fill="#F0BC1B" stroke="#101922" stroke-width="0.92" stroke-linecap="round" stroke-linejoin="round"/>
<path d="M26.4793 23.9629L2.00062 30.5191C2.43441 29.6515 3.00546 28.2404 3.18117 26.4174C3.32943 24.8634 3.14274 23.5676 2.95055 22.689L1.62175 17.7307C0.704757 14.3153 1.73156 10.8395 4.01031 8.46196C4.44958 8.00622 4.92729 7.59439 5.45443 7.2265C6.35494 6.60053 7.37626 6.11733 8.49641 5.81533C9.61656 5.51333 10.7422 5.42547 11.8404 5.51333C12.4773 5.56823 13.1033 5.68354 13.7073 5.85926C14.4651 6.07889 15.1954 6.38639 15.8762 6.78173C18.0342 8.02818 19.7144 10.0928 20.4118 12.69L21.7406 17.6538C22.0041 18.5104 22.4818 19.7129 23.3769 20.9703C24.4476 22.4804 25.6611 23.4248 26.4793 23.9629Z" fill="#F0BC1B" stroke="#101922" stroke-width="0.92" stroke-linecap="round" stroke-linejoin="round"/>
</g>
<defs>
<filter id="filter0_d_381_8778" x="0.827515" y="0.140564" width="27.4045" height="32.4202" filterUnits="userSpaceOnUse" color-interpolation-filters="sRGB">
<feFlood flood-opacity="0" result="BackgroundImageFix"/>
<feColorMatrix in="SourceAlpha" type="matrix" values="0 0 0 0 0 0 0 0 0 0 0 0 0 0 0 0 0 0 127 0" result="hardAlpha"/>
<feOffset dx="1.5" dy="1.5"/>
<feColorMatrix type="matrix" values="0 0 0 0 0 0 0 0 0 0 0 0 0 0 0 0 0 0 0.75 0"/>
<feBlend mode="normal" in2="BackgroundImageFix" result="effect1_dropShadow_381_8778"/>
<feBlend mode="normal" in="SourceGraphic" in2="effect1_dropShadow_381_8778" result="shape"/>
</filter>
</defs>
</svg>
