<svg width="27" height="31" viewBox="0 0 27 31" fill="none" xmlns="http://www.w3.org/2000/svg">
<g filter="url(#filter0_d_381_20709)">
<path d="M18.8022 2.65576H6.70147C4.7226 2.65576 3.11841 4.25995 3.11841 6.23882V23.7603C3.11841 25.7392 4.7226 27.3434 6.70147 27.3434H18.8022C20.7811 27.3434 22.3853 25.7392 22.3853 23.7603V6.23882C22.3853 4.25995 20.7811 2.65576 18.8022 2.65576Z" fill="#F0BC1B" stroke="#101922" stroke-width="0.92" stroke-linecap="round" stroke-linejoin="round"/>
<path d="M17.6841 10.9058C19.3247 10.9058 20.6546 9.57589 20.6546 7.93533C20.6546 6.29478 19.3247 4.96484 17.6841 4.96484C16.0436 4.96484 14.7136 6.29478 14.7136 7.93533C14.7136 9.57589 16.0436 10.9058 17.6841 10.9058Z" fill="#E3E0D7" stroke="#101922" stroke-width="0.92" stroke-linecap="round" stroke-linejoin="round"/>
<path d="M4.84888 13.4779C6.11778 12.6319 6.85675 12.6416 7.29917 12.841C7.90688 13.1132 8.07704 13.7841 8.54862 13.755C9.10772 13.7161 9.21953 12.7486 9.72029 12.7243C10.3474 12.6951 10.6343 14.1877 11.2225 14.1682C11.8497 14.1439 12.0879 12.418 12.6665 12.4375C13.0749 12.452 13.1283 13.3223 13.6485 13.4195C14.3146 13.5411 14.723 12.1798 15.496 12.209C16.1572 12.2333 16.2836 13.2396 17.1101 13.7647C17.6983 14.139 18.7241 14.3189 20.6299 13.4779" fill="#F0BC1B"/>
<path d="M4.84888 13.4779C6.11778 12.6319 6.85675 12.6416 7.29917 12.841C7.90688 13.1132 8.07704 13.7841 8.54862 13.755C9.10772 13.7161 9.21953 12.7486 9.72029 12.7243C10.3474 12.6951 10.6343 14.1877 11.2225 14.1682C11.8497 14.1439 12.0879 12.418 12.6665 12.4375C13.0749 12.452 13.1283 13.3223 13.6485 13.4195C14.3146 13.5411 14.723 12.1798 15.496 12.209C16.1572 12.2333 16.2836 13.2396 17.1101 13.7647C17.6983 14.139 18.7241 14.3189 20.6299 13.4779" stroke="#101922" stroke-width="0.92" stroke-linecap="round" stroke-linejoin="round"/>
<path d="M4.84888 6.23372C5.55868 5.38778 5.96707 5.39751 6.21501 5.59684C6.55533 5.86909 6.6477 6.54 6.91023 6.51083C7.22138 6.47194 7.28458 5.50446 7.56656 5.48016C7.9166 5.45099 8.07704 6.94352 8.40277 6.92408C8.75281 6.89977 8.88408 5.17387 9.20495 5.19332C9.43345 5.2079 9.46262 6.07814 9.74946 6.17538C10.1189 6.29692 10.3474 4.93565 10.7801 4.96482C11.1496 4.98913 11.2225 5.99549 11.6795 6.52056C12.0101 6.89491 12.579 7.07479 13.6437 6.23372" fill="#F0BC1B"/>
<path d="M4.84888 6.23372C5.55868 5.38778 5.96707 5.39751 6.21501 5.59684C6.55533 5.86909 6.6477 6.54 6.91023 6.51083C7.22138 6.47194 7.28458 5.50446 7.56656 5.48016C7.9166 5.45099 8.07704 6.94352 8.40277 6.92408C8.75281 6.89977 8.88408 5.17387 9.20495 5.19332C9.43345 5.2079 9.46262 6.07814 9.74946 6.17538C10.1189 6.29692 10.3474 4.93565 10.7801 4.96482C11.1496 4.98913 11.2225 5.99549 11.6795 6.52056C12.0101 6.89491 12.579 7.07479 13.6437 6.23372" stroke="#101922" stroke-width="0.92" stroke-linecap="round" stroke-linejoin="round"/>
<path d="M4.84888 9.85579C5.55868 9.00986 5.96707 9.01958 6.21501 9.21891C6.55533 9.49116 6.6477 10.1621 6.91023 10.1329C7.22138 10.094 7.28458 9.12654 7.56656 9.10223C7.9166 9.07306 8.07704 10.5656 8.40277 10.5461C8.75281 10.5218 8.88408 8.79594 9.20495 8.81539C9.43345 8.82997 9.46262 9.70022 9.74946 9.79745C10.1189 9.91899 10.3474 8.55772 10.7801 8.58689C11.1496 8.6112 11.2225 9.61757 11.6795 10.1426C12.0101 10.517 12.579 10.6969 13.6437 9.85579" fill="#F0BC1B"/>
<path d="M4.84888 9.85579C5.55868 9.00986 5.96707 9.01958 6.21501 9.21891C6.55533 9.49116 6.6477 10.1621 6.91023 10.1329C7.22138 10.094 7.28458 9.12654 7.56656 9.10223C7.9166 9.07306 8.07704 10.5656 8.40277 10.5461C8.75281 10.5218 8.88408 8.79594 9.20495 8.81539C9.43345 8.82997 9.46262 9.70022 9.74946 9.79745C10.1189 9.91899 10.3474 8.55772 10.7801 8.58689C11.1496 8.6112 11.2225 9.61757 11.6795 10.1426C12.0101 10.517 12.579 10.6969 13.6437 9.85579" stroke="#101922" stroke-width="0.92" stroke-linecap="round" stroke-linejoin="round"/>
<path d="M4.84888 17.0994C6.11778 16.2535 6.85675 16.2632 7.29917 16.4626C7.90688 16.7348 8.07704 17.4057 8.54862 17.3766C9.10772 17.3377 9.21953 16.3702 9.72029 16.3459C10.3474 16.3167 10.6343 17.8092 11.2225 17.7898C11.8497 17.7655 12.0879 16.0396 12.6665 16.059C13.0749 16.0736 13.1283 16.9439 13.6485 17.0411C14.3146 17.1626 14.723 15.8014 15.496 15.8305C16.1572 15.8548 16.2836 16.8612 17.1101 17.3863C17.6983 17.7606 18.7241 17.9405 20.6299 17.0994" fill="#F0BC1B"/>
<path d="M4.84888 17.0994C6.11778 16.2535 6.85675 16.2632 7.29917 16.4626C7.90688 16.7348 8.07704 17.4057 8.54862 17.3766C9.10772 17.3377 9.21953 16.3702 9.72029 16.3459C10.3474 16.3167 10.6343 17.8092 11.2225 17.7898C11.8497 17.7655 12.0879 16.0396 12.6665 16.059C13.0749 16.0736 13.1283 16.9439 13.6485 17.0411C14.3146 17.1626 14.723 15.8014 15.496 15.8305C16.1572 15.8548 16.2836 16.8612 17.1101 17.3863C17.6983 17.7606 18.7241 17.9405 20.6299 17.0994" stroke="#101922" stroke-width="0.92" stroke-linecap="round" stroke-linejoin="round"/>
<path d="M4.84888 20.7215C6.11778 19.8756 6.85675 19.8853 7.29917 20.0846C7.90688 20.3569 8.07704 21.0278 8.54862 20.9986C9.10772 20.9597 9.21953 19.9923 9.72029 19.968C10.3474 19.9388 10.6343 21.4313 11.2225 21.4119C11.8497 21.3876 12.0879 19.6617 12.6665 19.6811C13.0749 19.6957 13.1283 20.5659 13.6485 20.6632C14.3146 20.7847 14.723 19.4234 15.496 19.4526C16.1572 19.4769 16.2836 20.4833 17.1101 21.0084C17.6983 21.3827 18.7241 21.5626 20.6299 20.7215" fill="#F0BC1B"/>
<path d="M4.84888 20.7215C6.11778 19.8756 6.85675 19.8853 7.29917 20.0846C7.90688 20.3569 8.07704 21.0278 8.54862 20.9986C9.10772 20.9597 9.21953 19.9923 9.72029 19.968C10.3474 19.9388 10.6343 21.4313 11.2225 21.4119C11.8497 21.3876 12.0879 19.6617 12.6665 19.6811C13.0749 19.6957 13.1283 20.5659 13.6485 20.6632C14.3146 20.7847 14.723 19.4234 15.496 19.4526C16.1572 19.4769 16.2836 20.4833 17.1101 21.0084C17.6983 21.3827 18.7241 21.5626 20.6299 20.7215" stroke="#101922" stroke-width="0.92" stroke-linecap="round" stroke-linejoin="round"/>
<path d="M4.84888 24.3485C6.11778 23.5025 6.85675 23.5123 7.29917 23.7116C7.90688 23.9838 8.07704 24.6548 8.54862 24.6256C9.10772 24.5867 9.21953 23.6192 9.72029 23.5949C10.3474 23.5657 10.6343 25.0583 11.2225 25.0388C11.8497 25.0145 12.0879 23.2886 12.6665 23.3081C13.0749 23.3226 13.1283 24.1929 13.6485 24.2901C14.3146 24.4117 14.723 23.0504 15.496 23.0796C16.1572 23.1039 16.2836 24.1102 17.1101 24.6353C17.6983 25.0097 18.7241 25.1895 20.6299 24.3485" fill="#F0BC1B"/>
<path d="M4.84888 24.3485C6.11778 23.5025 6.85675 23.5123 7.29917 23.7116C7.90688 23.9838 8.07704 24.6548 8.54862 24.6256C9.10772 24.5867 9.21953 23.6192 9.72029 23.5949C10.3474 23.5657 10.6343 25.0583 11.2225 25.0388C11.8497 25.0145 12.0879 23.2886 12.6665 23.3081C13.0749 23.3226 13.1283 24.1929 13.6485 24.2901C14.3146 24.4117 14.723 23.0504 15.496 23.0796C16.1572 23.1039 16.2836 24.1102 17.1101 24.6353C17.6983 25.0097 18.7241 25.1895 20.6299 24.3485" stroke="#101922" stroke-width="0.92" stroke-linecap="round" stroke-linejoin="round"/>
<path d="M15.3982 1.51105L3.70975 4.64295C1.79831 5.15512 0.663975 7.11984 1.17614 9.03129L5.71105 25.9558C6.22322 27.8672 8.18794 29.0016 10.0994 28.4894L21.7878 25.3575C23.6992 24.8453 24.8336 22.8806 24.3214 20.9691L19.7865 4.04465C19.2743 2.13321 17.3096 0.998876 15.3982 1.51105Z" fill="#F0BC1B" stroke="#101922" stroke-width="0.92" stroke-linecap="round" stroke-linejoin="round"/>
<path d="M15.6861 9.87067C17.3266 9.87067 18.6566 8.54074 18.6566 6.90018C18.6566 5.25962 17.3266 3.92969 15.6861 3.92969C14.0455 3.92969 12.7156 5.25962 12.7156 6.90018C12.7156 8.54074 14.0455 9.87067 15.6861 9.87067Z" fill="#E3E0D7" stroke="#101922" stroke-width="0.92" stroke-linecap="round" stroke-linejoin="round"/>
<path d="M4.7229 15.5784C5.73413 14.4359 6.44394 14.2512 6.92524 14.329C7.58157 14.4359 7.92189 15.0388 8.36917 14.8881C8.89909 14.7082 8.7581 13.7407 9.23455 13.59C9.83253 13.4004 10.4986 14.7665 11.0577 14.5964C11.6557 14.4116 11.4418 12.6857 12.0008 12.5496C12.3995 12.4572 12.6766 13.2886 13.2017 13.2448C13.8775 13.1914 13.9164 11.7717 14.6699 11.5967C15.3165 11.446 15.7006 12.3892 16.634 12.6857C17.3001 12.8948 18.3356 12.8024 19.9594 11.4946" fill="#F0BC1B"/>
<path d="M4.7229 15.5784C5.73413 14.4359 6.44394 14.2512 6.92524 14.329C7.58157 14.4359 7.92189 15.0388 8.36917 14.8881C8.89909 14.7082 8.7581 13.7407 9.23455 13.59C9.83253 13.4004 10.4986 14.7665 11.0577 14.5964C11.6557 14.4116 11.4418 12.6857 12.0008 12.5496C12.3995 12.4572 12.6766 13.2886 13.2017 13.2448C13.8775 13.1914 13.9164 11.7717 14.6699 11.5967C15.3165 11.446 15.7006 12.3892 16.634 12.6857C17.3001 12.8948 18.3356 12.8024 19.9594 11.4946" stroke="#101922" stroke-width="0.92" stroke-linecap="round" stroke-linejoin="round"/>
<path d="M2.84595 8.58226C3.31267 7.58561 3.71133 7.48838 4.00303 7.61478C4.40169 7.7898 4.66422 8.41696 4.91216 8.31486C5.20387 8.19818 5.01426 7.24529 5.27679 7.15292C5.60739 7.03624 6.14703 8.4364 6.45818 8.32945C6.78878 8.21763 6.47277 6.51604 6.78878 6.44797C7.01241 6.39936 7.27008 7.23557 7.57151 7.25501C7.96044 7.27446 7.82918 5.90347 8.25214 5.81596C8.61677 5.74303 8.9425 6.70078 9.52591 7.08972C9.93915 7.36683 10.5371 7.39114 11.349 6.30212" fill="#F0BC1B"/>
<path d="M2.84595 8.58226C3.31267 7.58561 3.71133 7.48838 4.00303 7.61478C4.40169 7.7898 4.66422 8.41696 4.91216 8.31486C5.20387 8.19818 5.01426 7.24529 5.27679 7.15292C5.60739 7.03624 6.14703 8.43641 6.45818 8.32945C6.78878 8.21763 6.47277 6.51604 6.78878 6.44797C7.01241 6.39936 7.27008 7.23557 7.57151 7.25501C7.96044 7.27446 7.82918 5.90347 8.25214 5.81596C8.61677 5.74303 8.9425 6.70078 9.52591 7.08972C9.93915 7.36683 10.5371 7.39114 11.349 6.30212" stroke="#101922" stroke-width="0.92" stroke-linecap="round" stroke-linejoin="round"/>
<path d="M3.78491 12.0779C4.25163 11.0812 4.65029 10.984 4.94199 11.1104C5.34065 11.2854 5.60318 11.9126 5.85113 11.8105C6.14283 11.6938 5.95322 10.7409 6.21576 10.6485C6.54635 10.5318 7.086 11.932 7.39715 11.8251C7.72774 11.7132 7.41173 10.0116 7.72774 9.94358C7.95138 9.89496 8.20905 10.7312 8.51047 10.7506C8.89941 10.7701 8.76814 9.39907 9.19111 9.31156C9.55574 9.23864 9.88147 10.1964 10.4649 10.5853C10.8781 10.8624 11.4761 10.8867 12.288 9.79773" fill="#F0BC1B"/>
<path d="M3.78491 12.0779C4.25163 11.0812 4.65029 10.984 4.94199 11.1104C5.34065 11.2854 5.60318 11.9126 5.85113 11.8105C6.14283 11.6938 5.95322 10.7409 6.21576 10.6485C6.54635 10.5318 7.086 11.932 7.39715 11.8251C7.72774 11.7132 7.41173 10.0116 7.72774 9.94358C7.95138 9.89496 8.20905 10.7312 8.51047 10.7506C8.89941 10.7701 8.76814 9.39907 9.19111 9.31156C9.55573 9.23864 9.88147 10.1964 10.4649 10.5853C10.8781 10.8624 11.4761 10.8867 12.288 9.79773" stroke="#101922" stroke-width="0.92" stroke-linecap="round" stroke-linejoin="round"/>
<path d="M5.66089 19.0789C6.67212 17.9364 7.38193 17.7517 7.86323 17.8295C8.51956 17.9364 8.85988 18.5393 9.30715 18.3886C9.83708 18.2087 9.69609 17.2412 10.1725 17.0905C10.7705 16.9009 11.4366 18.267 11.9957 18.0969C12.5937 17.9121 12.3797 16.1862 12.9388 16.0501C13.3375 15.9577 13.6146 16.7891 14.1397 16.7453C14.8154 16.6918 14.8543 15.2722 15.6079 15.0972C16.2545 14.9465 16.6386 15.8897 17.572 16.1862C18.2381 16.3953 19.2736 16.3029 20.8974 14.9951" fill="#F0BC1B"/>
<path d="M5.66089 19.0789C6.67212 17.9364 7.38193 17.7517 7.86323 17.8295C8.51956 17.9364 8.85988 18.5393 9.30715 18.3886C9.83708 18.2087 9.69609 17.2412 10.1725 17.0905C10.7705 16.9009 11.4366 18.267 11.9957 18.0969C12.5937 17.9121 12.3797 16.1862 12.9388 16.0501C13.3375 15.9577 13.6146 16.7891 14.1397 16.7453C14.8154 16.6918 14.8543 15.2722 15.6079 15.0972C16.2545 14.9465 16.6386 15.8897 17.572 16.1862C18.2381 16.3953 19.2736 16.3029 20.8974 14.9951" stroke="#101922" stroke-width="0.92" stroke-linecap="round" stroke-linejoin="round"/>
<path d="M6.59937 22.5745C7.6106 21.432 8.3204 21.2473 8.80171 21.3251C9.45804 21.432 9.79836 22.0349 10.2456 21.8842C10.7756 21.7043 10.6346 20.7368 11.111 20.5861C11.709 20.3965 12.375 21.7626 12.9341 21.5925C13.5321 21.4077 13.3182 19.6818 13.8773 19.5457C14.276 19.4533 14.5531 20.2847 15.0781 20.2409C15.7539 20.1875 15.7928 18.7678 16.5464 18.5928C17.193 18.4421 17.5771 19.3853 18.5105 19.6818C19.1766 19.8909 20.2121 19.7985 21.8359 18.4907" fill="#F0BC1B"/>
<path d="M6.59937 22.5745C7.6106 21.432 8.3204 21.2473 8.80171 21.3251C9.45804 21.432 9.79836 22.0349 10.2456 21.8842C10.7756 21.7043 10.6346 20.7368 11.111 20.5861C11.709 20.3965 12.375 21.7626 12.9341 21.5925C13.5321 21.4077 13.3182 19.6818 13.8773 19.5457C14.276 19.4533 14.5531 20.2847 15.0781 20.2409C15.7539 20.1875 15.7928 18.7678 16.5464 18.5928C17.193 18.4421 17.5771 19.3853 18.5105 19.6818C19.1766 19.8909 20.2121 19.7985 21.8359 18.4907" stroke="#101922" stroke-width="0.92" stroke-linecap="round" stroke-linejoin="round"/>
<path d="M7.53735 26.0745C8.54858 24.932 9.25839 24.7473 9.7397 24.8251C10.396 24.932 10.7363 25.5349 11.1836 25.3842C11.7135 25.2043 11.5726 24.2368 12.049 24.0861C12.647 23.8965 13.313 25.2626 13.8721 25.0925C14.4701 24.9077 14.2562 23.1818 14.8153 23.0457C15.214 22.9533 15.4911 23.7847 16.0161 23.7409C16.6919 23.6875 16.7308 22.2678 17.4844 22.0928C18.131 21.9421 18.515 22.8853 19.4485 23.1818C20.1145 23.3909 21.1501 23.2985 22.7739 21.9907" fill="#F0BC1B"/>
<path d="M7.53735 26.0745C8.54858 24.932 9.25839 24.7473 9.7397 24.8251C10.396 24.932 10.7363 25.5349 11.1836 25.3842C11.7135 25.2043 11.5726 24.2368 12.049 24.0861C12.647 23.8965 13.313 25.2626 13.8721 25.0925C14.4701 24.9077 14.2562 23.1818 14.8153 23.0457C15.214 22.9533 15.4911 23.7847 16.0161 23.7409C16.6919 23.6875 16.7308 22.2678 17.4844 22.0928C18.131 21.9421 18.515 22.8853 19.4485 23.1818C20.1145 23.3909 21.1501 23.2985 22.7739 21.9907" stroke="#101922" stroke-width="0.92" stroke-linecap="round" stroke-linejoin="round"/>
</g>
<defs>
<filter id="filter0_d_381_20709" x="0.593018" y="0.927734" width="25.8115" height="29.6445" filterUnits="userSpaceOnUse" color-interpolation-filters="sRGB">
<feFlood flood-opacity="0" result="BackgroundImageFix"/>
<feColorMatrix in="SourceAlpha" type="matrix" values="0 0 0 0 0 0 0 0 0 0 0 0 0 0 0 0 0 0 127 0" result="hardAlpha"/>
<feOffset dx="1.5" dy="1.5"/>
<feColorMatrix type="matrix" values="0 0 0 0 0 0 0 0 0 0 0 0 0 0 0 0 0 0 0.75 0"/>
<feBlend mode="normal" in2="BackgroundImageFix" result="effect1_dropShadow_381_20709"/>
<feBlend mode="normal" in="SourceGraphic" in2="effect1_dropShadow_381_20709" result="shape"/>
</filter>
</defs>
</svg>
