<svg width="23" height="23" viewBox="0 0 23 23" fill="none" xmlns="http://www.w3.org/2000/svg">
<g filter="url(#filter0_d_381_20754)">
<path d="M20.7507 0.998047H0.750732V20.998H20.7507V0.998047Z" fill="#F0BC1B"/>
<path d="M20.7507 0.998047H0.750732V20.998H20.7507V0.998047Z" stroke="#101922" stroke-width="0.92" stroke-linecap="round" stroke-linejoin="round"/>
</g>
<path d="M19.39 3.62305H12.6257V10.3873H19.39V3.62305Z" fill="#E3E0D7" stroke="#101922" stroke-width="0.92" stroke-linecap="round" stroke-linejoin="round"/>
<path d="M2.43237 12.4091C3.79666 11.827 4.58952 11.8305 5.06452 11.9698C5.71452 12.1591 5.90023 12.6234 6.40737 12.602C7.01094 12.577 7.1288 11.9055 7.66809 11.8912C8.33952 11.8698 8.65023 12.902 9.2788 12.8877C9.95023 12.8734 10.2074 11.6805 10.8288 11.6912C11.2681 11.6984 11.3252 12.3055 11.8824 12.3698C12.5967 12.452 13.0359 11.5127 13.8681 11.5305C14.5788 11.5448 14.7181 12.2448 15.6038 12.6091C16.2395 12.8698 17.3395 12.9912 19.3859 12.4091" fill="#F0BC1B"/>
<path d="M2.43237 12.4091C3.79666 11.827 4.58952 11.8305 5.06452 11.9698C5.71452 12.1591 5.90023 12.6234 6.40737 12.602C7.01094 12.577 7.1288 11.9055 7.66809 11.8912C8.33952 11.8698 8.65023 12.902 9.2788 12.8877C9.95023 12.8734 10.2074 11.6805 10.8288 11.6912C11.2681 11.6984 11.3252 12.3055 11.8824 12.3698C12.5967 12.452 13.0359 11.5127 13.8681 11.5305C14.5788 11.5448 14.7181 12.2448 15.6038 12.6091C16.2395 12.8698 17.3395 12.9912 19.3859 12.4091" stroke="#101922" stroke-width="0.92" stroke-linecap="round" stroke-linejoin="round"/>
<path d="M2.43237 4.50187C3.15737 3.91973 3.5788 3.9233 3.83237 4.06258C4.1788 4.25187 4.27523 4.71616 4.54666 4.69473C4.86809 4.66973 4.93237 3.9983 5.21809 3.98401C5.57523 3.96258 5.73952 4.99473 6.07523 4.98044C6.43237 4.96616 6.56809 3.7733 6.90023 3.78401C7.13594 3.79116 7.16452 4.3983 7.46094 4.46258C7.84309 4.54473 8.07523 3.60544 8.51452 3.6233C8.89309 3.63758 8.96452 4.33758 9.43952 4.70187C9.77523 4.96258 10.3609 5.08401 11.4502 4.50187" fill="#F0BC1B"/>
<path d="M2.43237 4.50187C3.15737 3.91973 3.5788 3.9233 3.83237 4.06258C4.1788 4.25187 4.27523 4.71616 4.54666 4.69473C4.86809 4.66973 4.93237 3.9983 5.21809 3.98401C5.57523 3.96258 5.73952 4.99473 6.07523 4.98044C6.43237 4.96616 6.56809 3.7733 6.90023 3.78401C7.13594 3.79116 7.16452 4.3983 7.46094 4.46258C7.84309 4.54473 8.07523 3.60544 8.51452 3.6233C8.89309 3.63758 8.96452 4.33758 9.43952 4.70187C9.77523 4.96258 10.3609 5.08401 11.4502 4.50187" stroke="#101922" stroke-width="0.92" stroke-linecap="round" stroke-linejoin="round"/>
<path d="M2.43237 7.13761C3.15737 6.55547 3.5788 6.55904 3.83237 6.69833C4.1788 6.88761 4.27523 7.3519 4.54666 7.33047C4.86809 7.30547 4.93237 6.63404 5.21809 6.61976C5.57523 6.59833 5.73952 7.63047 6.07523 7.61618C6.43237 7.6019 6.56809 6.40904 6.90023 6.41976C7.13594 6.4269 7.16452 7.03404 7.46094 7.09833C7.84309 7.18047 8.07523 6.24118 8.51452 6.25904C8.89309 6.27333 8.96452 6.97333 9.43952 7.33761C9.77523 7.59833 10.3609 7.71975 11.4502 7.13761" fill="#F0BC1B"/>
<path d="M2.43237 7.13761C3.15737 6.55547 3.5788 6.55904 3.83237 6.69833C4.1788 6.88761 4.27523 7.3519 4.54666 7.33047C4.86809 7.30547 4.93237 6.63404 5.21809 6.61976C5.57523 6.59833 5.73952 7.63047 6.07523 7.61618C6.43237 7.6019 6.56809 6.40904 6.90023 6.41976C7.13594 6.4269 7.16452 7.03404 7.46094 7.09833C7.84309 7.18047 8.07523 6.24118 8.51452 6.25904C8.89309 6.27333 8.96452 6.97333 9.43952 7.33761C9.77523 7.59833 10.3609 7.71975 11.4502 7.13761" stroke="#101922" stroke-width="0.92" stroke-linecap="round" stroke-linejoin="round"/>
<path d="M2.43237 9.77335C3.15737 9.19121 3.5788 9.19478 3.83237 9.33407C4.1788 9.52335 4.27523 9.98764 4.54666 9.96621C4.86809 9.94121 4.93237 9.26978 5.21809 9.2555C5.57523 9.23407 5.73952 10.2662 6.07523 10.2519C6.43237 10.2376 6.56809 9.04478 6.90023 9.0555C7.13594 9.06264 7.16452 9.66978 7.46094 9.73407C7.84309 9.81621 8.07523 8.87693 8.51452 8.89478C8.89309 8.90907 8.96452 9.60907 9.43952 9.97335C9.77523 10.2341 10.3609 10.3555 11.4502 9.77335" fill="#F0BC1B"/>
<path d="M2.43237 9.77335C3.15737 9.19121 3.5788 9.19478 3.83237 9.33407C4.1788 9.52335 4.27523 9.98764 4.54666 9.96621C4.86809 9.94121 4.93237 9.26978 5.21809 9.2555C5.57523 9.23407 5.73952 10.2662 6.07523 10.2519C6.43237 10.2376 6.56809 9.04478 6.90023 9.0555C7.13594 9.06264 7.16452 9.66978 7.46094 9.73407C7.84309 9.81621 8.07523 8.87693 8.51452 8.89478C8.89309 8.90907 8.96452 9.60907 9.43952 9.97335C9.77523 10.2341 10.3609 10.3555 11.4502 9.77335" stroke="#101922" stroke-width="0.92" stroke-linecap="round" stroke-linejoin="round"/>
<path d="M2.43237 14.5922C3.79666 14.0101 4.58952 14.0136 5.06452 14.1529C5.71452 14.3422 5.90023 14.8065 6.40737 14.7851C7.01094 14.7601 7.1288 14.0886 7.66809 14.0743C8.33952 14.0529 8.65023 15.0851 9.2788 15.0708C9.95023 15.0565 10.2074 13.8636 10.8288 13.8743C11.2681 13.8815 11.3252 14.4886 11.8824 14.5529C12.5967 14.6351 13.0359 13.6958 13.8681 13.7136C14.5788 13.7279 14.7181 14.4279 15.6038 14.7922C16.2395 15.0529 17.3395 15.1743 19.3859 14.5922" fill="#F0BC1B"/>
<path d="M2.43237 14.5922C3.79666 14.0101 4.58952 14.0136 5.06452 14.1529C5.71452 14.3422 5.90023 14.8065 6.40737 14.7851C7.01094 14.7601 7.1288 14.0886 7.66809 14.0743C8.33952 14.0529 8.65023 15.0851 9.2788 15.0708C9.95023 15.0565 10.2074 13.8636 10.8288 13.8743C11.2681 13.8815 11.3252 14.4886 11.8824 14.5529C12.5967 14.6351 13.0359 13.6958 13.8681 13.7136C14.5788 13.7279 14.7181 14.4279 15.6038 14.7922C16.2395 15.0529 17.3395 15.1743 19.3859 14.5922" stroke="#101922" stroke-width="0.92" stroke-linecap="round" stroke-linejoin="round"/>
<path d="M2.43237 16.7753C3.79666 16.1932 4.58952 16.1967 5.06452 16.336C5.71452 16.5253 5.90023 16.9896 6.40737 16.9682C7.01094 16.9432 7.1288 16.2717 7.66809 16.2574C8.33952 16.236 8.65023 17.2682 9.2788 17.2539C9.95023 17.2396 10.2074 16.0467 10.8288 16.0575C11.2681 16.0646 11.3252 16.6717 11.8824 16.736C12.5967 16.8182 13.0359 15.8789 13.8681 15.8967C14.5788 15.911 14.7181 16.611 15.6038 16.9753C16.2395 17.236 17.3395 17.3574 19.3859 16.7753" fill="#F0BC1B"/>
<path d="M2.43237 16.7753C3.79666 16.1932 4.58952 16.1967 5.06452 16.336C5.71452 16.5253 5.90023 16.9896 6.40737 16.9682C7.01094 16.9432 7.1288 16.2717 7.66809 16.2574C8.33952 16.236 8.65023 17.2682 9.2788 17.2539C9.95023 17.2396 10.2074 16.0467 10.8288 16.0575C11.2681 16.0646 11.3252 16.6717 11.8824 16.736C12.5967 16.8182 13.0359 15.8789 13.8681 15.8967C14.5788 15.911 14.7181 16.611 15.6038 16.9753C16.2395 17.236 17.3395 17.3574 19.3859 16.7753" stroke="#101922" stroke-width="0.92" stroke-linecap="round" stroke-linejoin="round"/>
<path d="M2.43237 18.9589C3.79666 18.3768 4.58952 18.3803 5.06452 18.5196C5.71452 18.7089 5.90023 19.1732 6.40737 19.1518C7.01094 19.1268 7.1288 18.4553 7.66809 18.441C8.33952 18.4196 8.65023 19.4518 9.2788 19.4375C9.95023 19.4232 10.2074 18.2303 10.8288 18.241C11.2681 18.2482 11.3252 18.8553 11.8824 18.9196C12.5967 19.0018 13.0359 18.0625 13.8681 18.0803C14.5788 18.0946 14.7181 18.7946 15.6038 19.1589C16.2395 19.4196 17.3395 19.541 19.3859 18.9589" fill="#F0BC1B"/>
<path d="M2.43237 18.9589C3.79666 18.3768 4.58952 18.3803 5.06452 18.5196C5.71452 18.7089 5.90023 19.1732 6.40737 19.1518C7.01094 19.1268 7.1288 18.4553 7.66809 18.441C8.33952 18.4196 8.65023 19.4518 9.2788 19.4375C9.95023 19.4232 10.2074 18.2303 10.8288 18.241C11.2681 18.2482 11.3252 18.8553 11.8824 18.9196C12.5967 19.0018 13.0359 18.0625 13.8681 18.0803C14.5788 18.0946 14.7181 18.7946 15.6038 19.1589C16.2395 19.4196 17.3395 19.541 19.3859 18.9589" stroke="#101922" stroke-width="0.92" stroke-linecap="round" stroke-linejoin="round"/>
<defs>
<filter id="filter0_d_381_20754" x="0.290771" y="0.538086" width="22.4199" height="22.4199" filterUnits="userSpaceOnUse" color-interpolation-filters="sRGB">
<feFlood flood-opacity="0" result="BackgroundImageFix"/>
<feColorMatrix in="SourceAlpha" type="matrix" values="0 0 0 0 0 0 0 0 0 0 0 0 0 0 0 0 0 0 127 0" result="hardAlpha"/>
<feOffset dx="1.5" dy="1.5"/>
<feColorMatrix type="matrix" values="0 0 0 0 0 0 0 0 0 0 0 0 0 0 0 0 0 0 0.75 0"/>
<feBlend mode="normal" in2="BackgroundImageFix" result="effect1_dropShadow_381_20754"/>
<feBlend mode="normal" in="SourceGraphic" in2="effect1_dropShadow_381_20754" result="shape"/>
</filter>
</defs>
</svg>
