<svg width="32" height="26" viewBox="0 0 32 26" fill="none" xmlns="http://www.w3.org/2000/svg">
<path d="M29.3929 3.46161H2.60714C1.71954 3.46161 1 4.18115 1 5.06875C1 5.95635 1.71954 6.67589 2.60714 6.67589H29.3929C30.2805 6.67589 31 5.95635 31 5.06875C31 4.18115 30.2805 3.46161 29.3929 3.46161Z" fill="#E3E0D7" stroke="#111922" stroke-linejoin="round"/>
<path d="M29.125 5.06879C29.125 2.99772 27.4461 1.31879 25.375 1.31879C23.3039 1.31879 21.625 2.99772 21.625 5.06879C21.625 7.13985 23.3039 8.81879 25.375 8.81879C27.4461 8.81879 29.125 7.13985 29.125 5.06879Z" fill="#E3E0D7" stroke="#111922" stroke-linejoin="round"/>
<path d="M29.3929 12.4777H2.60714C1.71954 12.4777 1 13.1972 1 14.0848C1 14.9724 1.71954 15.6919 2.60714 15.6919H29.3929C30.2805 15.6919 31 14.9724 31 14.0848C31 13.1972 30.2805 12.4777 29.3929 12.4777Z" fill="#E3E0D7" stroke="#111922" stroke-linejoin="round"/>
<path d="M12.6946 14.0848C12.6946 12.0138 11.0156 10.3348 8.94458 10.3348C6.87351 10.3348 5.19458 12.0138 5.19458 14.0848C5.19458 16.1559 6.87351 17.8348 8.94458 17.8348C11.0156 17.8348 12.6946 16.1559 12.6946 14.0848Z" fill="#E3E0D7" stroke="#111922" stroke-linejoin="round"/>
<path d="M29.3929 19.3242H2.60714C1.71954 19.3242 1 20.0437 1 20.9313C1 21.8189 1.71954 22.5384 2.60714 22.5384H29.3929C30.2805 22.5384 31 21.8189 31 20.9313C31 20.0437 30.2805 19.3242 29.3929 19.3242Z" fill="#E3E0D7" stroke="#111922" stroke-linejoin="round"/>
<path d="M29.125 20.9313C29.125 18.8602 27.4461 17.1813 25.375 17.1813C23.3039 17.1813 21.625 18.8602 21.625 20.9313C21.625 23.0023 23.3039 24.6813 25.375 24.6813C27.4461 24.6813 29.125 23.0023 29.125 20.9313Z" fill="#E3E0D7" stroke="#111922" stroke-linejoin="round"/>
</svg>
