<svg width="39" height="19" viewBox="0 0 39 19" fill="none" xmlns="http://www.w3.org/2000/svg">
<path d="M38.8043 9.56265H34.2295" stroke="#111922" stroke-width="0.92" stroke-linejoin="round"/>
<path d="M4.57485 9.56265H0" stroke="#111922" stroke-width="0.92" stroke-linejoin="round"/>
<path d="M34.2294 9.56265C32.4417 12.6513 29.718 15.1265 26.4495 16.6074C24.3022 17.5805 21.9169 18.12 19.4047 18.12C16.8925 18.12 14.5072 17.5805 12.36 16.6074C9.08617 15.1265 6.36242 12.6513 4.58008 9.56265C7.58943 10.5305 11.8946 11.5883 17.1358 11.8369C17.8762 11.8739 18.6325 11.8897 19.4047 11.8897C19.6903 11.8897 19.9812 11.8897 20.2774 11.8845C20.7534 11.8739 21.2188 11.8633 21.6789 11.8369C26.8673 11.5936 31.1565 10.5517 34.2347 9.56794L34.2294 9.56265Z" fill="#E3E0D7" stroke="#111922" stroke-width="0.92" stroke-linejoin="round"/>
<path d="M34.2294 9.56264C31.1513 10.5517 26.862 11.5883 21.6737 11.8316C21.2136 11.8527 20.7481 11.8686 20.2721 11.8792C19.9812 11.8792 19.6904 11.8844 19.3995 11.8844C18.622 11.8844 17.8657 11.8686 17.1306 11.8316C11.8893 11.583 7.58418 10.5252 4.57483 9.55736C6.36246 6.46867 9.08622 3.99349 12.3547 2.51261C14.502 1.53946 16.8873 1 19.3995 1C21.9117 1 24.2969 1.53946 26.4442 2.51261C29.718 3.99349 32.4418 6.46867 34.2241 9.55736L34.2294 9.56264Z" fill="#E3E0D7" stroke="#111922" stroke-width="0.92" stroke-linejoin="round"/>
<path d="M19.3995 17.4272V11.8897" stroke="#111922" stroke-width="0.92" stroke-linejoin="round"/>
<path d="M29.6175 13.1961L27.613 11.1863" stroke="#111922" stroke-width="0.92" stroke-linejoin="round"/>
<path d="M11.1912 11.1863L9.1814 13.1961" stroke="#111922" stroke-width="0.92" stroke-linejoin="round"/>
</svg>
