<svg width="200" height="200" viewBox="0 0 200 200" fill="none" xmlns="http://www.w3.org/2000/svg">
<g filter="url(#filter0_d_105_3131)">
<path d="M189.944 0.563232H0.563232V136.533H189.944V0.563232Z" fill="#F0BC1B" stroke="#101922" stroke-width="1.78" stroke-miterlimit="10"/>
<path d="M189.944 135.496H0.563232V189.944H189.944V135.496Z" fill="#FFFFFA" stroke="#101922" stroke-width="1.78" stroke-miterlimit="10"/>
</g>
<path d="M16.2701 37.0396H26.7624C27.3763 37.0396 27.8193 37.2168 28.3508 37.7421L32.0529 41.4441C32.8439 42.2352 33.0211 42.3238 33.5527 42.3238C34.0843 42.3238 34.2551 42.2352 35.0525 41.4441L38.7546 37.7421C39.2862 37.2105 39.7228 37.0396 40.343 37.0396H51.0062V100.506H43.9564V43.3869H42.4566C41.8365 43.3869 41.3112 43.6527 40.8682 44.0894L36.4637 48.4939C35.4955 49.4621 34.8753 49.8165 33.8185 49.8165H33.2869C32.2301 49.8165 31.6099 49.4621 30.6417 48.4939L26.2372 44.0894C25.7942 43.6464 25.2689 43.3869 24.6488 43.3869H23.149V100.506H16.2764V37.0396H16.2701Z" fill="#101922"/>
<path d="M87.9382 37.0396V38.9761C87.761 47.0004 86.6156 52.3731 83.0021 62.7769L77.3636 78.8191V100.5H70.3139V78.8191L64.4981 62.3339C60.8847 52.1959 59.9164 46.994 59.9164 39.8557V37.0333H66.9662V39.4127C66.9662 47.7851 67.6686 51.6643 70.2253 59.6L73.8387 70.529L77.5408 59.6C80.186 51.6643 80.8885 47.1712 80.8885 39.4127V37.0333H87.9382V37.0396Z" fill="#101922"/>
<path d="M99.3102 92.482L96.8422 70.8898C95.7854 61.372 95.431 56.3473 95.431 49.557V37.0396H102.481V50.1709C102.481 55.4613 102.746 61.8086 103.803 72.649L105.658 90.8936C105.923 93.5388 106.714 94.1526 107.505 94.1526C107.948 94.1526 108.385 93.8868 108.828 93.4502L112.796 89.4823C114.118 88.1597 114.998 87.7167 115.884 87.7167H116.416C117.295 87.7167 118.181 88.1597 119.504 89.4823L123.472 93.4502C123.915 93.8932 124.351 94.1526 124.794 94.1526C125.585 94.1526 126.383 93.5325 126.642 90.8936L128.667 72.649C129.724 62.6883 129.813 55.4613 129.813 50.1709V37.0396H136.862V49.557C136.862 56.341 136.774 61.4542 135.628 70.8898L132.983 92.482C132.281 98.0382 129.895 100.506 126.281 100.506H124.693C122.757 100.506 121.434 99.8861 120.023 98.4812L117.821 96.2789C117.029 95.4879 116.587 95.2221 116.144 95.2221C115.701 95.2221 115.264 95.4879 114.467 96.2789L112.264 98.4812C110.853 99.8924 109.53 100.506 107.594 100.506H106.006C102.392 100.506 99.9241 98.0382 99.3039 92.482H99.3102Z" fill="#101922"/>
<path d="M172.117 64.0995L168.504 44.6209C167.447 39.071 165.422 36.5966 161.802 36.5966H159.157C155.544 36.5966 153.519 39.071 152.455 44.6209L148.842 64.0995C147.083 73.4464 146.735 80.4075 146.735 85.4385V100.506H174.231V85.4385C174.231 80.4075 173.877 73.4464 172.111 64.0995H172.117ZM153.607 93.6337V83.23C153.607 79.7051 153.962 73.978 155.366 65.8588L158.809 46.2093C159.246 43.5641 159.6 43.1275 160.397 43.1275C161.195 43.1275 161.537 43.5641 161.973 46.2093L165.416 65.8588C166.833 73.9716 167.175 79.7051 167.175 83.23V93.6337H153.601H153.607Z" fill="#101922"/>
<path d="M16.2701 171.301L22.5857 147.272H30.4835L36.7991 171.301H32.1288L30.8252 166.017H22.244L20.9404 171.301H16.2701ZM23.3072 161.828H29.762L26.8447 150.12H26.2245L23.3072 161.828Z" fill="#231F20"/>
<path d="M39.824 178.167V154.272H44.083V156.328H44.7032C45.0892 155.664 45.6967 155.075 46.5257 154.563C47.3484 154.05 48.5255 153.791 50.0632 153.791C51.4365 153.791 52.7085 154.126 53.8729 154.803C55.0373 155.48 55.9802 156.468 56.689 157.771C57.3978 159.075 57.7521 160.657 57.7521 162.511V163.062C57.7521 164.916 57.3978 166.492 56.689 167.802C55.9802 169.105 55.0436 170.099 53.8729 170.77C52.7085 171.447 51.4365 171.782 50.0632 171.782C49.0317 171.782 48.1711 171.662 47.4686 171.421C46.7725 171.181 46.2093 170.871 45.7853 170.497C45.3613 170.118 45.0259 169.738 44.7728 169.346H44.1526V178.167H39.824ZM48.747 168.004C50.0949 168.004 51.215 167.574 52.0946 166.719C52.9743 165.859 53.4173 164.606 53.4173 162.96V162.619C53.4173 160.973 52.9679 159.72 52.0756 158.86C51.1834 157.999 50.0696 157.575 48.747 157.575C47.4243 157.575 46.3106 158.005 45.4183 158.86C44.526 159.72 44.0767 160.973 44.0767 162.619V162.96C44.0767 164.606 44.526 165.859 45.4183 166.719C46.3106 167.58 47.418 168.004 48.747 168.004Z" fill="#231F20"/>
<path d="M61.7264 178.167V154.272H65.9853V156.328H66.6055C66.9915 155.664 67.5991 155.075 68.4281 154.563C69.2507 154.05 70.4278 153.791 71.9656 153.791C73.3388 153.791 74.6108 154.126 75.7752 154.803C76.9396 155.48 77.8826 156.468 78.5913 157.771C79.3001 159.075 79.6545 160.657 79.6545 162.511V163.062C79.6545 164.916 79.3001 166.492 78.5913 167.802C77.8826 169.105 76.946 170.099 75.7752 170.77C74.6108 171.447 73.3388 171.782 71.9656 171.782C70.9341 171.782 70.0734 171.662 69.371 171.421C68.6749 171.181 68.1116 170.871 67.6876 170.497C67.2637 170.118 66.9283 169.738 66.6751 169.346H66.0549V178.167H61.7264ZM70.6493 168.004C71.9972 168.004 73.1173 167.574 73.997 166.719C74.8766 165.859 75.3196 164.606 75.3196 162.96V162.619C75.3196 160.973 74.8703 159.72 73.978 158.86C73.0857 157.999 71.9719 157.575 70.6493 157.575C69.3267 157.575 68.2129 158.005 67.3206 158.86C66.4283 159.72 65.979 160.973 65.979 162.619V162.96C65.979 164.606 66.4283 165.859 67.3206 166.719C68.2129 167.58 69.3204 168.004 70.6493 168.004Z" fill="#231F20"/>
<defs>
<filter id="filter0_d_105_3131" x="-0.326782" y="-0.326782" width="206.161" height="206.161" filterUnits="userSpaceOnUse" color-interpolation-filters="sRGB">
<feFlood flood-opacity="0" result="BackgroundImageFix"/>
<feColorMatrix in="SourceAlpha" type="matrix" values="0 0 0 0 0 0 0 0 0 0 0 0 0 0 0 0 0 0 127 0" result="hardAlpha"/>
<feOffset dx="15" dy="15"/>
<feColorMatrix type="matrix" values="0 0 0 0 0 0 0 0 0 0 0 0 0 0 0 0 0 0 0.75 0"/>
<feBlend mode="normal" in2="BackgroundImageFix" result="effect1_dropShadow_105_3131"/>
<feBlend mode="normal" in="SourceGraphic" in2="effect1_dropShadow_105_3131" result="shape"/>
</filter>
</defs>
</svg>
