<svg width="33" height="33" viewBox="0 0 33 33" fill="none" xmlns="http://www.w3.org/2000/svg">
<g filter="url(#filter0_d_381_8772)">
<path d="M29.0421 22.2553C28.2007 22.1749 27.4129 22.1106 26.6252 22.0195C26.3626 21.9874 26.1964 22.0356 26.0571 22.266C25.7248 22.818 25.3444 23.3432 24.9049 23.8201C24.712 24.0291 24.6906 24.2113 24.8031 24.4578C25.1407 25.192 25.4569 25.9369 25.7945 26.6657C25.9071 26.9123 25.8803 27.0677 25.6659 27.2445C24.9424 27.8447 24.1922 28.3967 23.383 28.8844C23.115 29.0451 22.9328 29.0291 22.7024 28.8201C22.1075 28.2842 21.4913 27.7751 20.891 27.2445C20.682 27.057 20.4998 27.0302 20.2373 27.1427C19.6692 27.3946 19.0744 27.5929 18.4581 27.7054C18.1205 27.7697 17.9811 27.9573 17.9168 28.2681C17.7668 29.013 17.5846 29.7525 17.4291 30.4974C17.3702 30.7868 17.2201 30.9101 16.904 30.9369C15.9715 31.028 15.0498 31.0226 14.1227 30.9315C13.8386 30.9047 13.6832 30.8029 13.6243 30.5189C13.4635 29.7579 13.2599 29.0076 13.1152 28.252C13.0509 27.9197 12.8847 27.7751 12.5632 27.7C11.9683 27.5661 11.3842 27.3892 10.8322 27.1373C10.5536 27.0141 10.3714 27.0409 10.1463 27.2499C9.56752 27.7804 8.9566 28.2734 8.37783 28.804C8.13668 29.0237 7.93303 29.0451 7.65437 28.8736C6.88803 28.4074 6.16457 27.8876 5.4679 27.3356C5.15708 27.0891 5.14101 26.8587 5.30177 26.5264C5.61795 25.8673 5.8859 25.1813 6.20744 24.5222C6.35213 24.2167 6.3039 24.0023 6.08419 23.7612C5.66619 23.3057 5.29642 22.8073 4.98024 22.2821C4.83018 22.0356 4.65334 21.982 4.37467 22.0142C3.61905 22.1053 2.85808 22.1588 2.10246 22.2446C1.73269 22.2875 1.51833 22.1856 1.37364 21.8212C1.04139 20.9852 0.746641 20.1439 0.543 19.2704C0.478692 19.0024 0.553718 18.8524 0.789513 18.7237C1.49154 18.3272 2.17749 17.9199 2.87952 17.5233C3.11531 17.3894 3.26536 17.2393 3.22249 16.9553C3.12067 16.3176 3.15818 15.6798 3.22785 15.0421C3.26 14.7688 3.15818 14.6027 2.90631 14.4634C2.20428 14.0775 1.51833 13.6595 0.810949 13.2683C0.559077 13.129 0.484051 12.9736 0.548359 12.6895C0.762718 11.7839 1.06282 10.9157 1.42187 10.0583C1.55049 9.74745 1.74341 9.68314 2.06495 9.72601C2.83664 9.82247 3.6137 9.87606 4.38539 9.95645C4.69621 9.9886 4.89985 9.8975 5.05526 9.62419C5.36072 9.08829 5.74121 8.60063 6.15385 8.14511C6.3307 7.95219 6.35213 7.77534 6.24495 7.53955C5.90734 6.80537 5.59116 6.06047 5.24818 5.33165C5.12493 5.06906 5.17316 4.89757 5.39824 4.71001C6.10562 4.11516 6.86124 3.58998 7.64365 3.09695C7.93303 2.92011 8.1206 2.95226 8.36175 3.17198C8.9298 3.6918 9.52465 4.17947 10.0981 4.69393C10.3231 4.89757 10.5375 4.95652 10.8376 4.82254C11.4057 4.56531 12.0059 4.38311 12.6168 4.25449C12.9169 4.19019 13.0509 4.03477 13.1098 3.75075C13.2652 3.02193 13.4581 2.29846 13.5921 1.56964C13.6671 1.16236 13.8815 1.02839 14.2727 1.01767C15.1087 0.985515 15.9501 0.996233 16.7861 1.01767C17.1826 1.02839 17.3863 1.1838 17.4613 1.58036C17.5953 2.31454 17.7936 3.03265 17.9436 3.76147C18.0026 4.04013 18.1258 4.19554 18.4313 4.25985C19.0422 4.38847 19.6424 4.57603 20.2105 4.83326C20.5106 4.96724 20.7088 4.90293 20.9393 4.69393C21.518 4.16339 22.1236 3.665 22.7131 3.14518C22.906 2.9737 23.0614 2.90939 23.3133 3.05944C24.1386 3.54711 24.9156 4.09372 25.6498 4.70465C25.8856 4.90293 25.9231 5.09049 25.7945 5.3638C25.4569 6.0819 25.1514 6.81609 24.8138 7.52883C24.7013 7.76462 24.7174 7.93611 24.8942 8.12904C25.339 8.6167 25.7463 9.14188 26.0839 9.70993C26.2286 9.95109 26.4269 9.97253 26.668 9.95109C27.4558 9.87606 28.2489 9.81711 29.0313 9.72065C29.3422 9.68314 29.5083 9.76888 29.6262 10.0529C29.9906 10.8943 30.2693 11.7571 30.4943 12.6413C30.5747 12.9575 30.4729 13.145 30.1942 13.3005C29.5297 13.6649 28.8813 14.0561 28.2168 14.4205C27.9488 14.5652 27.8202 14.7206 27.847 15.0528C27.906 15.6906 27.9113 16.3336 27.8309 16.9714C27.7934 17.25 27.906 17.3786 28.1257 17.5019C28.8116 17.8877 29.4869 18.295 30.1835 18.6701C30.4836 18.8363 30.5747 19.0131 30.4836 19.3561C30.2639 20.1921 29.9906 21.0174 29.6637 21.8212C29.5351 22.1374 29.3636 22.3411 29.0313 22.2553L29.0421 22.2553ZM7.44537 15.9531C7.42929 20.3422 10.9877 23.8898 15.4142 23.9112C19.9371 23.9273 23.6081 20.4279 23.6241 16.0818C23.6402 11.6445 20.0872 8.11832 15.591 8.10224C11.0359 8.08616 7.46144 11.532 7.45073 15.9585L7.44537 15.9531Z" fill="#F0BC1B" stroke="#101922" stroke-width="0.92" stroke-linecap="round" stroke-linejoin="round"/>
<path d="M15.5163 9.85992C18.989 9.85992 21.8185 12.6037 21.8239 15.9852C21.8346 19.34 18.9675 22.1427 15.5271 22.1534C12.0759 22.1588 9.24634 19.3882 9.24634 16.0013C9.24634 12.5769 12.0169 9.86528 15.511 9.86528L15.5163 9.85992ZM19.8089 16.0067C19.8089 13.6541 17.9279 11.7945 15.5378 11.7892C13.1423 11.7892 11.2238 13.6487 11.2238 15.9745C11.2238 18.3271 13.1048 20.1706 15.5056 20.176C17.9332 20.176 19.7982 18.37 19.8035 16.0067L19.8089 16.0067Z" fill="#101922"/>
</g>
<defs>
<filter id="filter0_d_381_8772" x="0.0610352" y="0.537354" width="32.4199" height="32.4252" filterUnits="userSpaceOnUse" color-interpolation-filters="sRGB">
<feFlood flood-opacity="0" result="BackgroundImageFix"/>
<feColorMatrix in="SourceAlpha" type="matrix" values="0 0 0 0 0 0 0 0 0 0 0 0 0 0 0 0 0 0 127 0" result="hardAlpha"/>
<feOffset dx="1.5" dy="1.5"/>
<feColorMatrix type="matrix" values="0 0 0 0 0 0 0 0 0 0 0 0 0 0 0 0 0 0 0.75 0"/>
<feBlend mode="normal" in2="BackgroundImageFix" result="effect1_dropShadow_381_8772"/>
<feBlend mode="normal" in="SourceGraphic" in2="effect1_dropShadow_381_8772" result="shape"/>
</filter>
</defs>
</svg>
