<svg width="35" height="26" viewBox="0 0 35 26" fill="none" xmlns="http://www.w3.org/2000/svg">
<path d="M17.0918 0V25.47" stroke="#111922" stroke-width="0.92" stroke-linejoin="round"/>
<path d="M8.08923 3.73244L26.099 21.7376" stroke="#111922" stroke-width="0.92" stroke-linejoin="round"/>
<path d="M0 12.735H34.1883" stroke="#111922" stroke-width="0.92" stroke-linejoin="round"/>
<path d="M26.099 3.73244L8.08923 21.7376" stroke="#111922" stroke-width="0.92" stroke-linejoin="round"/>
<path d="M30.1577 12.735C27.5482 17.2409 22.6742 20.2744 17.0965 20.2744C11.5188 20.2744 6.64008 17.2409 4.03064 12.735C6.64008 8.22906 11.5141 5.19559 17.0965 5.19559C22.6788 5.19559 27.5529 8.22906 30.1577 12.735Z" fill="#E3E0D7" stroke="#111922" stroke-width="0.92" stroke-linejoin="round"/>
<path d="M17.0918 16.528C19.1867 16.528 20.8848 14.8298 20.8848 12.735C20.8848 10.6402 19.1867 8.94199 17.0918 8.94199C14.997 8.94199 13.2988 10.6402 13.2988 12.735C13.2988 14.8298 14.997 16.528 17.0918 16.528Z" fill="#0F1922"/>
</svg>
